<?xml version="1.0" standalone="no"?>
<!DOCTYPE svg PUBLIC "-//W3C//DTD SVG 20010904//EN"
 "http://www.w3.org/TR/2001/REC-SVG-20010904/DTD/svg10.dtd">
<svg version="1.0" xmlns="http://www.w3.org/2000/svg"
 width="512.000000pt" height="512.000000pt" viewBox="0 0 512.000000 512.000000"
 preserveAspectRatio="xMidYMid meet">

<g transform="translate(0.000000,512.000000) scale(0.100000,-0.100000)"
fill="#000000" stroke="none">
<path d="M951 5109 c-276 -32 -537 -178 -714 -399 -176 -221 -260 -510 -227
-785 36 -302 182 -562 414 -740 71 -54 74 -58 65 -83 -58 -153 -70 -445 -23
-573 11 -30 17 -84 19 -169 2 -148 26 -240 105 -407 77 -162 165 -273 283
-353 l37 -25 0 -82 0 -82 -63 -108 -63 -108 -125 -6 c-142 -7 -215 -27 -320
-89 -91 -54 -160 -119 -218 -205 -100 -150 -120 -246 -121 -573 0 -271 5 -294
67 -312 27 -8 405 -10 1326 -8 l1289 3 24 28 24 28 0 273 c0 239 -2 282 -20
350 -31 122 -82 209 -180 306 -138 139 -284 200 -479 200 l-96 0 -62 106 -63
106 0 87 0 86 71 55 c111 86 198 201 275 364 75 159 105 312 81 421 -12 58
-12 61 14 105 39 65 69 161 69 222 0 29 -9 96 -21 148 -11 52 -24 136 -28 186
-13 131 -45 186 -136 232 -40 20 -173 52 -215 52 -19 0 -16 7 25 64 57 80 127
227 154 326 100 359 4 752 -252 1027 -170 182 -416 304 -670 332 -108 12 -139
12 -246 0z m41 -260 c3 -74 6 -83 31 -105 36 -31 78 -31 114 0 25 22 28 31 31
105 5 95 2 93 123 62 109 -28 189 -63 279 -122 l79 -52 -54 -59 c-45 -48 -55
-66 -55 -94 0 -47 37 -84 83 -84 36 0 119 54 130 84 12 30 33 16 74 -46 68
-105 100 -180 128 -298 25 -111 26 -110 -52 -110 -38 0 -79 -6 -93 -13 -33
-17 -53 -60 -45 -98 10 -46 56 -69 138 -69 78 0 77 1 52 -110 -29 -122 -70
-216 -138 -313 l-40 -57 -58 55 c-48 46 -63 55 -94 55 -49 0 -85 -36 -85 -85
0 -31 9 -46 55 -94 l55 -58 -57 -40 c-97 -68 -191 -109 -313 -138 -111 -25
-110 -26 -110 53 0 81 -23 127 -69 137 -38 8 -81 -12 -98 -45 -7 -14 -13 -55
-13 -92 0 -64 -1 -68 -22 -68 -56 1 -216 48 -291 86 -52 27 -157 98 -157 106
0 4 18 26 41 49 22 22 47 56 55 75 13 30 12 38 -1 64 -18 35 -43 50 -85 50
-25 0 -44 -12 -90 -55 l-58 -56 -47 71 c-56 85 -98 181 -125 287 -32 124 -34
120 61 125 74 3 83 6 105 31 13 16 24 41 24 57 0 16 -11 41 -24 57 -22 25 -31
28 -105 31 -80 4 -81 4 -81 31 1 76 61 244 126 347 65 106 65 106 129 45 41
-39 61 -51 85 -51 42 0 67 15 85 50 20 39 7 71 -52 132 -27 28 -42 51 -38 58
12 20 137 96 202 124 79 33 189 64 229 65 l32 1 4 -81z m923 -1669 c114 -13
164 -28 180 -54 7 -12 16 -55 19 -96 4 -42 15 -113 26 -158 25 -103 25 -155 1
-208 l-19 -41 -70 23 c-101 34 -239 40 -427 19 -82 -9 -200 -19 -260 -22
l-110 -6 -115 61 c-230 121 -337 122 -472 2 l-48 -42 0 112 c0 94 21 254 36
269 2 3 43 -8 90 -23 192 -63 405 -71 597 -22 106 27 271 102 352 159 57 41
77 43 220 27z m-898 -621 c54 -29 115 -61 136 -72 60 -31 187 -33 427 -7 307
34 438 19 486 -56 25 -38 22 -148 -6 -239 -86 -274 -280 -476 -520 -541 -99
-27 -264 -25 -360 5 -242 75 -386 227 -480 509 -32 95 -46 192 -36 245 7 39
102 159 149 188 52 31 95 25 204 -32z m348 -1112 c119 -1 194 10 270 39 12 5
15 -2 15 -32 0 -37 -7 -46 -143 -176 l-144 -136 -136 136 c-125 125 -137 140
-137 173 l0 35 73 -19 c54 -15 105 -20 202 -20z m-229 -328 l112 -111 -54 -67
c-30 -36 -59 -66 -64 -66 -16 0 -190 238 -182 249 5 6 21 32 36 59 15 26 30
47 33 47 3 0 57 -50 119 -111z m623 46 l31 -55 -91 -121 c-103 -137 -91 -135
-169 -34 l-40 52 112 111 c62 61 115 109 119 106 4 -2 21 -29 38 -59z m-854
-302 c165 -217 180 -233 223 -233 32 0 44 8 94 61 l58 60 0 -285 0 -286 -280
0 -280 0 0 145 c0 142 -1 147 -25 170 -34 35 -93 34 -126 -1 -23 -24 -24 -33
-27 -170 l-3 -144 -180 0 -179 0 0 183 c0 276 27 370 141 491 61 66 147 119
228 142 25 7 91 12 146 13 l100 0 110 -146z m1298 127 c122 -38 238 -135 293
-246 46 -94 54 -144 54 -361 l0 -203 -180 0 -180 0 0 145 c0 142 -1 147 -25
170 -37 38 -95 35 -129 -6 -25 -30 -26 -35 -26 -170 l0 -139 -275 0 -275 0 0
288 1 287 32 -40 c56 -70 75 -85 106 -85 16 0 37 3 46 6 9 4 79 89 156 190
l140 184 98 0 c71 0 117 -6 164 -20z"/>
<path d="M1053 4563 c-13 -2 -32 -16 -43 -30 -19 -24 -20 -40 -20 -276 l0
-251 139 -139 c135 -135 141 -140 173 -133 18 3 45 20 61 36 47 52 39 71 -83
195 l-110 111 0 213 c0 133 -4 220 -11 233 -9 16 -71 52 -81 47 -2 -1 -13 -4
-25 -6z"/>
<path d="M3417 5104 c-40 -22 -47 -50 -47 -185 l0 -119 -365 0 c-412 0 -416
-1 -435 -68 -8 -25 -10 -184 -8 -499 3 -459 3 -463 25 -484 14 -15 38 -23 72
-27 l51 -5 0 -324 c0 -344 4 -378 48 -402 15 -8 342 -11 1086 -11 l1065 0 28
24 28 24 3 346 3 346 40 0 c51 0 75 13 94 50 22 42 23 936 1 979 -26 49 -39
51 -431 51 l-365 0 0 129 c0 123 -1 131 -24 158 l-24 28 -409 2 c-351 2 -412
0 -436 -13z m713 -234 l0 -70 -290 0 -290 0 0 70 0 70 290 0 290 0 0 -70z
m-1020 -610 l0 -360 -185 0 -185 0 0 360 0 360 185 0 185 0 0 -360z m1280 0
l0 -360 -550 0 -550 0 0 360 0 360 550 0 550 0 0 -360z m550 0 l0 -360 -185 0
-185 0 0 360 0 360 185 0 185 0 0 -360z m-1828 -629 c5 -104 21 -137 72 -146
75 -15 109 33 108 150 l0 85 549 0 549 0 0 -91 c0 -87 1 -92 29 -120 31 -31
53 -35 96 -19 37 14 55 65 55 155 l0 75 110 0 110 0 0 -280 0 -280 -950 0
-950 0 0 280 0 280 109 0 109 0 4 -89z"/>
<path d="M3714 2356 c-17 -8 -35 -22 -40 -32 -4 -11 -11 -70 -14 -132 l-5
-113 -80 -34 -80 -35 -80 79 c-84 83 -117 101 -157 81 -33 -17 -286 -269 -305
-304 -23 -44 -9 -74 78 -161 l79 -80 -35 -80 -34 -80 -113 -5 c-62 -3 -123
-11 -134 -17 -36 -21 -44 -65 -44 -258 0 -193 8 -237 44 -258 11 -6 72 -14
134 -17 l113 -5 34 -80 35 -80 -79 -80 c-87 -87 -101 -117 -78 -161 8 -16 78
-91 155 -166 135 -133 141 -138 182 -138 40 0 48 6 125 81 l83 80 38 -19 c22
-11 58 -25 82 -32 l42 -13 0 -109 c0 -121 11 -156 55 -176 34 -16 389 -16 434
-1 49 17 61 52 61 177 l0 109 43 13 c23 7 59 21 81 32 l38 19 83 -80 c75 -73
86 -81 121 -81 37 0 47 8 192 153 143 144 152 154 152 191 0 35 -8 47 -81 121
l-80 83 19 38 c11 22 25 58 32 82 l13 42 109 0 c125 0 160 12 177 61 15 45 15
400 -1 434 -20 44 -55 55 -176 55 l-109 0 -13 43 c-7 23 -21 59 -32 81 l-19
38 80 83 c75 77 81 85 81 125 0 41 -5 47 -137 182 -76 77 -151 147 -167 155
-44 23 -74 9 -161 -78 l-80 -79 -80 35 -80 34 -5 113 c-3 62 -11 123 -17 134
-7 12 -27 27 -44 33 -48 16 -396 14 -435 -3z m316 -271 c0 -134 7 -146 100
-174 38 -12 106 -39 152 -61 117 -57 128 -55 218 35 l74 75 63 -62 c35 -34 63
-66 63 -70 0 -4 -31 -41 -70 -82 -83 -87 -86 -105 -36 -198 19 -35 46 -101 61
-147 39 -119 42 -121 175 -121 l110 0 0 -95 0 -95 -109 0 c-101 0 -111 -2
-131 -23 -12 -13 -32 -54 -44 -93 -13 -38 -39 -103 -59 -144 -54 -109 -51
-120 38 -210 l75 -75 -68 -68 -68 -67 -74 75 c-86 86 -111 93 -185 50 -23 -14
-92 -43 -151 -65 -60 -22 -115 -47 -121 -57 -9 -11 -13 -54 -13 -125 l0 -108
-95 0 -95 0 0 109 c0 102 -1 110 -25 133 -13 14 -47 30 -75 36 -28 7 -93 32
-144 57 -52 25 -106 45 -121 45 -21 0 -47 -18 -101 -70 -41 -38 -78 -70 -82
-70 -4 0 -36 28 -70 63 l-62 63 75 74 c88 87 93 109 45 193 -16 29 -43 93 -61
142 -46 133 -50 135 -181 135 l-108 0 0 95 0 95 104 0 c129 0 145 10 175 108
11 37 38 103 61 147 56 111 54 122 -30 212 -38 41 -70 78 -70 82 0 4 27 33 59
65 l59 59 39 -31 c21 -17 56 -49 78 -71 50 -52 82 -53 167 -7 35 19 99 46 143
61 121 41 125 47 125 177 l0 108 95 0 95 0 0 -105z"/>
<path d="M3861 1679 c-151 -19 -307 -135 -376 -281 -91 -191 -52 -414 97 -561
103 -101 213 -147 353 -147 140 0 251 46 350 145 99 99 145 210 145 350 0 140
-46 250 -145 351 -114 115 -258 164 -424 143z m124 -180 c76 -14 121 -37 172
-89 60 -59 87 -121 91 -207 6 -106 -16 -163 -92 -239 -76 -76 -133 -98 -239
-92 -86 4 -152 33 -210 91 -116 116 -121 311 -9 438 39 44 119 88 180 99 26 4
47 8 48 9 0 0 27 -4 59 -10z"/>
</g>
</svg>
