<?xml version="1.0" standalone="no"?>
<!DOCTYPE svg PUBLIC "-//W3C//DTD SVG 20010904//EN"
 "http://www.w3.org/TR/2001/REC-SVG-20010904/DTD/svg10.dtd">
<svg version="1.0" xmlns="http://www.w3.org/2000/svg"
 width="575.000000pt" height="436.000000pt" viewBox="0 0 575.000000 436.000000"
 preserveAspectRatio="xMidYMid meet">

<g transform="translate(0.000000,436.000000) scale(0.100000,-0.100000)"
fill="#000000" stroke="none">
<path d="M65 4351 c-38 -16 -60 -51 -60 -96 l0 -42 632 -639 c347 -352 767
-774 932 -939 166 -165 301 -304 301 -310 0 -6 -214 -224 -476 -485 -261 -261
-683 -685 -936 -943 l-461 -468 6 -41 c3 -26 15 -51 31 -67 l26 -26 1248 -3
c686 -1 1261 0 1278 3 18 3 44 17 58 32 l26 26 0 189 0 190 -29 29 -29 29
-726 0 c-399 0 -726 3 -726 8 0 4 124 131 276 282 151 151 482 485 735 741
441 449 459 468 459 504 0 46 24 20 -787 835 -546 548 -573 577 -573 612 0 20
8 46 19 59 l19 24 656 5 656 5 27 28 28 27 3 185 4 185 -35 35 -35 35 -1263
-1 c-695 0 -1273 -4 -1284 -8z"/>
<path d="M2974 4350 c-30 -12 -64 -58 -64 -86 0 -13 266 -688 590 -1499 325
-811 590 -1482 590 -1491 0 -21 -204 -526 -238 -588 -40 -73 -104 -133 -180
-169 -86 -40 -209 -49 -327 -22 -88 19 -111 16 -148 -21 l-27 -27 0 -173 c0
-206 4 -215 105 -240 88 -22 318 -30 412 -14 326 52 532 268 731 765 173 431
1332 3460 1332 3481 0 16 -12 38 -34 60 l-34 34 -196 0 c-208 0 -243 -6 -265
-49 -8 -15 -667 -1923 -819 -2371 l-35 -105 -13 32 c-8 17 -207 573 -444 1235
-374 1047 -434 1207 -460 1231 l-30 27 -213 -1 c-116 0 -222 -4 -233 -9z"/>
</g>
</svg>
