<?xml version="1.0" standalone="no"?>
<!DOCTYPE svg PUBLIC "-//W3C//DTD SVG 20010904//EN"
 "http://www.w3.org/TR/2001/REC-SVG-20010904/DTD/svg10.dtd">
<svg version="1.0" xmlns="http://www.w3.org/2000/svg"
 width="512.000000pt" height="512.000000pt" viewBox="0 0 512.000000 512.000000"
 preserveAspectRatio="xMidYMid meet">

<g transform="translate(0.000000,512.000000) scale(0.100000,-0.100000)"
fill="#000000" stroke="none">
<path d="M681 5106 c-53 -30 -50 127 -51 -2544 0 -2760 -6 -2531 68 -2552 26
-8 581 -10 1884 -8 l1848 3 27 28 28 27 3 2488 c2 1897 -1 2494 -10 2516 -24
59 89 56 -1925 56 -1515 -1 -1852 -3 -1872 -14z m3629 -2546 l0 -2380 -1750 0
-1750 0 0 2380 0 2380 1750 0 1750 0 0 -2380z"/>
<path d="M2315 4724 c-626 -97 -1138 -583 -1275 -1210 -24 -110 -39 -307 -27
-353 16 -63 -11 -61 678 -61 l627 0 12 -29 c16 -39 65 -88 114 -114 58 -30
174 -30 232 0 43 23 98 79 116 119 l11 24 629 0 629 0 24 25 c23 22 25 32 25
115 0 278 -110 604 -287 853 -73 102 -235 267 -333 340 -216 159 -480 264
-750 297 -115 14 -316 11 -425 -6z m155 -369 l0 -205 -27 0 c-46 0 -190 -38
-264 -70 -137 -58 -285 -170 -380 -287 l-34 -43 -170 97 c-93 53 -172 98 -174
99 -14 12 141 195 232 273 83 72 205 155 293 199 134 68 360 131 502 141 l22
1 0 -205z m357 179 c166 -29 346 -105 507 -212 128 -85 382 -350 358 -374 -4
-4 -81 -50 -172 -102 l-165 -96 -39 48 c-100 119 -246 228 -377 283 -79 32
-217 69 -261 69 l-28 0 0 206 0 205 48 -6 c26 -4 84 -13 129 -21z m-125 -568
c40 -8 104 -26 142 -40 244 -92 438 -318 489 -571 l14 -70 -266 -3 c-146 -1
-270 -1 -276 2 -6 2 -19 19 -29 38 l-19 34 103 175 c114 191 123 221 80 264
-36 35 -79 41 -111 16 -15 -11 -72 -99 -128 -195 l-101 -174 -64 -4 c-81 -5
-148 -44 -191 -110 l-30 -47 -273 0 -272 -1 6 28 c36 158 69 240 138 336 93
130 226 232 377 287 136 50 273 61 411 35z m-1201 -272 c93 -53 169 -99 169
-101 0 -3 -13 -44 -29 -92 -16 -47 -32 -109 -36 -136 -13 -93 8 -85 -216 -85
l-199 0 0 23 c0 44 30 205 51 273 24 79 78 214 86 214 3 0 81 -43 174 -96z
m2327 24 c51 -123 102 -330 102 -414 l0 -24 -199 0 c-224 0 -203 -8 -216 85
-4 27 -20 89 -37 138 -16 49 -27 92 -24 95 10 9 330 192 337 192 3 0 20 -33
37 -72z m-1241 -458 c31 -11 53 -45 53 -81 0 -31 -44 -69 -80 -69 -86 0 -109
117 -29 149 13 5 24 10 25 10 1 1 15 -4 31 -9z"/>
<path d="M1853 2785 c-50 -35 -46 -123 7 -150 25 -13 121 -15 700 -15 690 0
697 0 727 39 22 28 16 89 -12 116 l-24 25 -688 0 c-593 0 -692 -2 -710 -15z"/>
<path d="M1054 2416 c-35 -16 -44 -32 -44 -85 0 -26 7 -44 23 -59 l23 -22
1503 0 1502 0 24 25 c33 32 33 84 1 122 l-24 28 -1489 2 c-1233 2 -1493 0
-1519 -11z"/>
<path d="M1035 2025 c-25 -24 -33 -73 -19 -110 18 -47 -35 -45 1544 -45 1107
0 1487 3 1503 12 34 18 46 39 47 81 0 27 -7 45 -25 62 l-24 25 -1501 0 -1501
0 -24 -25z"/>
<path d="M1054 1666 c-35 -16 -44 -32 -44 -85 0 -26 7 -44 23 -59 l23 -22
1503 0 1502 0 24 25 c35 34 34 93 -1 126 l-26 24 -1486 2 c-1233 2 -1492 0
-1518 -11z"/>
<path d="M1117 974 c-15 -8 -32 -26 -37 -40 -6 -14 -10 -131 -10 -260 l0 -236
29 -29 29 -29 1432 0 1432 0 29 29 29 29 0 236 c0 161 -4 243 -12 261 -26 58
56 55 -1480 55 -1243 -1 -1416 -3 -1441 -16z m2753 -289 l0 -125 -1310 0
-1310 0 0 125 0 125 1310 0 1310 0 0 -125z"/>
</g>
</svg>
